<?xml version="1.0" encoding="UTF-8"?>
<svg version="1.1" viewBox="0 0 24 24" xmlns="http://www.w3.org/2000/svg" xmlns:xlink="http://www.w3.org/1999/xlink">
    <!--Generated by IJSVG (https://github.com/curthard89/IJSVG)-->
    <g stroke-linecap="round" stroke-width="1" stroke="#465EFB" fill="none" stroke-linejoin="round">
        <path d="M14.8284,9.17157c1.5621,1.5621 1.5621,4.09476 0,5.65685c-1.5621,1.5621 -4.09476,1.5621 -5.65685,0c-1.5621,-1.5621 -1.5621,-4.09476 -1.77636e-15,-5.65685c1.5621,-1.5621 4.09476,-1.5621 5.65685,-1.77636e-15"></path>
        <path d="M12.5,0.5v4"></path>
        <path d="M12.5,19.5v4"></path>
        <path d="M3.87,3.87l2.83,2.83"></path>
        <path d="M17.3,17.3l2.83,2.83"></path>
        <path d="M0.5,12.5h4"></path>
        <path d="M19.5,12.5h4"></path>
        <path d="M3.87,20.13l2.83,-2.83"></path>
        <path d="M17.3,6.7l2.83,-2.83"></path>
    </g>
    <path fill="none" d="M0,0h24v24h-24Z"></path>
</svg>