<?xml version="1.0" encoding="UTF-8"?>
<svg version="1.1" viewBox="0 0 24 24" xmlns="http://www.w3.org/2000/svg" xmlns:xlink="http://www.w3.org/1999/xlink">
    <!--Generated by IJSVG (https://github.com/curthard89/IJSVG)-->
    <g fill="#465EFB">
        <path d="M15.182,8.81802c1.75736,1.75736 1.75736,4.6066 0,6.36396c-1.75736,1.75736 -4.6066,1.75736 -6.36396,0c-1.75736,-1.75736 -1.75736,-4.6066 0,-6.36396c1.75736,-1.75736 4.6066,-1.75736 6.36396,0"></path>
        <path d="M12,6c-0.552,0 -1,-0.448 -1,-1v-4c0,-0.552 0.448,-1 1,-1c0.552,0 1,0.448 1,1v4c0,0.552 -0.448,1 -1,1Z"></path>
        <path d="M12,24c-0.552,0 -1,-0.448 -1,-1v-4c0,-0.552 0.448,-1 1,-1c0.552,0 1,0.448 1,1v4c0,0.552 -0.448,1 -1,1Z"></path>
        <path d="M5,13.5h-4c-0.552,0 -1,-0.448 -1,-1c0,-0.552 0.448,-1 1,-1h4c0.552,0 1,0.448 1,1c0,0.552 -0.448,1 -1,1Z"></path>
        <path d="M23,13.5h-4c-0.552,0 -1,-0.448 -1,-1c0,-0.552 0.448,-1 1,-1h4c0.552,0 1,0.448 1,1c0,0.552 -0.448,1 -1,1Z"></path>
        <path d="M16.243,7.758c-0.391,-0.391 -0.391,-1.023 0,-1.414l2.829,-2.829c0.39,-0.39 1.024,-0.39 1.415,0.001c0.39,0.39 0.39,1.024 0,1.414l-2.829,2.828c-0.392,0.39 -1.025,0.39 -1.415,8.88178e-16Z"></path>
        <path d="M3.515,20.486c-0.391,-0.391 -0.391,-1.025 0,-1.415l2.829,-2.829c0.391,-0.391 1.024,-0.39 1.414,0c0.39,0.39 0.391,1.023 0,1.414l-2.829,2.829c-0.39,0.391 -1.024,0.391 -1.414,0.001Z"></path>
        <path d="M5.99,8.111l-2.829,-2.828c-0.391,-0.39 -0.391,-1.022 0,-1.414c0.391,-0.391 1.023,-0.391 1.414,0l2.829,2.828c0.39,0.391 0.391,1.023 0,1.414c-0.391,0.391 -1.024,0.391 -1.414,0Z"></path>
        <path d="M18.717,20.839l-2.828,-2.828c-0.391,-0.391 -0.391,-1.023 0,-1.414c0.391,-0.391 1.023,-0.391 1.414,0l2.828,2.828c0.391,0.391 0.391,1.023 0,1.414c-0.39,0.39 -1.023,0.39 -1.414,0Z"></path>
    </g>
    <path fill="none" d="M0,0h24v24h-24Z"></path>
</svg>