<?xml version="1.0" encoding="UTF-8"?>
<svg version="1.1" viewBox="0 0 24 24" xmlns="http://www.w3.org/2000/svg" xmlns:xlink="http://www.w3.org/1999/xlink">
    <!--Generated by IJSVG (https://github.com/curthard89/IJSVG)-->
    <g stroke-linecap="round" stroke-width="1" stroke="#465EFB" fill="none" stroke-linejoin="round">
        <path d="M23.5,21.5c0,0.552 -0.447,1 -1,1h-21c-0.553,0 -1,-0.448 -1,-1v-20c0,-0.552 0.447,-1 1,-1h21c0.553,0 1,0.448 1,1v20Z"></path>
        <path d="M13.4142,4.08579c0.781049,0.781049 0.781049,2.04738 0,2.82843c-0.781049,0.781049 -2.04738,0.781049 -2.82843,0c-0.781049,-0.781049 -0.781049,-2.04738 0,-2.82843c0.781049,-0.781049 2.04738,-0.781049 2.82843,-8.88178e-16"></path>
        <path d="M14,5.5h6.52"></path>
        <path d="M3.52,5.5h6.48"></path>
        <path d="M9.41421,10.0858c0.781049,0.781049 0.781049,2.04738 0,2.82843c-0.781049,0.781049 -2.04738,0.781049 -2.82843,0c-0.781049,-0.781049 -0.781049,-2.04738 -8.88178e-16,-2.82843c0.781049,-0.781049 2.04738,-0.781049 2.82843,0"></path>
        <path d="M10,11.5h10.52"></path>
        <path d="M3.52,11.5h2.48"></path>
        <path d="M11.4142,16.0858c0.781049,0.781049 0.781049,2.04738 0,2.82843c-0.781049,0.781049 -2.04738,0.781049 -2.82843,0c-0.781049,-0.781049 -0.781049,-2.04738 0,-2.82843c0.781049,-0.781049 2.04738,-0.781049 2.82843,0"></path>
        <path d="M12,17.5h8.52"></path>
        <path d="M3.52,17.5h4.48"></path>
    </g>
    <path fill="none" d="M0,0h24v24h-24Z"></path>
</svg>