<?xml version="1.0" encoding="UTF-8"?>
<svg version="1.1" viewBox="0 0 24 24" xmlns="http://www.w3.org/2000/svg" xmlns:xlink="http://www.w3.org/1999/xlink">
    <!--Generated by IJSVG (https://github.com/curthard89/IJSVG)-->
    <path d="M23.077,3.96c-0.073,-0.143 -0.209,-0.241 -0.367,-0.267c-0.158,-0.026 -0.318,0.027 -0.431,0.14l-3.165,3.156h-1.958v-2.105l3.087,-3.166c0.111,-0.115 0.161,-0.274 0.136,-0.431c-0.026,-0.156 -0.125,-0.29 -0.266,-0.364c-0.98,-0.501 -2.088,-0.767 -3.203,-0.767c-1.886,0 -3.653,0.728 -4.974,2.049c-2.075,2.075 -2.64,5.169 -1.46,7.804l-9.577,9.568c-0.976,0.977 -0.98,2.556 -0.003,3.533c0.976,0.976 2.554,0.979 3.531,0.002l9.566,-9.568c0.894,0.4 1.875,0.608 2.858,0.608v0c1.868,0 3.623,-0.726 4.944,-2.048c2.157,-2.155 2.671,-5.429 1.282,-8.144Z" fill="#465EFB"></path>
    <path fill="none" d="M0,0h24v24h-24Z"></path>
</svg>